PathFileType	3	(X/Y/Z)	D:\Jess\Healthy\Labelled\HA07\20250404\SRRun01.trc
DataRate	CameraRate	NumFrames	NumMarkers	Units	OrigDataRate	OrigDataStartFrame	OrigNumFrames
250.0	250.0	4	33	mm	250.0	35312	2501
Frame#	Time	C7			T10			CLAV			LSHO			RSHO			LASIS			RASIS			LPSIS			RPSIS			LILCR			RILCR			LGTR			LTHI			LLTHI			LLEP			LPSH			LLSH			LDSH			LLMAL			LTOE			L5TH			LHEE			RGTR			RTHI			RLTHI			RLEP			RPSH			RLSH			RDSH			RLMAL			RTOE			R5TH			RHEE			
		X1	Y1	Z1	X2	Y2	Z2	X3	Y3	Z3	X4	Y4	Z4	X5	Y5	Z5	X6	Y6	Z6	X7	Y7	Z7	X8	Y8	Z8	X9	Y9	Z9	X10	Y10	Z10	X11	Y11	Z11	X12	Y12	Z12	X13	Y13	Z13	X14	Y14	Z14	X15	Y15	Z15	X16	Y16	Z16	X17	Y17	Z17	X18	Y18	Z18	X19	Y19	Z19	X20	Y20	Z20	X21	Y21	Z21	X22	Y22	Z22	X23	Y23	Z23	X24	Y24	Z24	X25	Y25	Z25	X26	Y26	Z26	X27	Y27	Z27	X28	Y28	Z28	X29	Y29	Z29	X30	Y30	Z30	X31	Y31	Z31	X32	Y32	Z32	X33	Y33	Z33	

313	141.244	1137.471341827875	1380.633485450021	-303.4331374142935	1058.591264163686	1173.680695481209	-275.0967001750907	1256.721824089346	1293.20240765006	-327.5083287254663	1150.930132255574	1363.918773238571	-455.8376551618031	1220.292855994611	1361.81065087552	-169.7866531051805	1195.41559545928	940.7973687122405	-415.4040325038662	1224.399951166684	930.2239987881266	-191.896310562595	1041.88985216995	981.9613722749909	-294.2705062835095	1050.493557733065	982.043315859618	-253.5662247137027	1130.577335964969	969.6630874789641	-453.9036764942064	1171.579828292333	966.2481800061811	-148.1732516608062	1123.096316690189	860.5405006921068	-471.8244044179301	1277.05260646955	760.508368575283	-407.4892069755047	1217.253618167839	637.903756329437	-453.6472358195413	1267.901661626406	485.7370468072414	-421.90812978372	1329.36644792204	412.8459738508647	-373.531748051044	1244.885377257516	298.2313436112414	-419.3564073984909	1317.804919422852	204.5103026643978	-351.6304367755276	1280.577059466347	99.52685860334222	-373.2474018402168	1409.405597583587	76.87295993111918	-359.8053697509652	1373.857675165803	47.70802357790761	-395.0302544170909	1205.516488421195	72.02334845999312	-325.3450297250027	1165.073173608182	854.0950382213729	-131.0493636412266	1223.899115122095	700.6288271257912	-229.9338151756358	1127.145782362282	610.8453774911354	-171.3661071184357	1066.829233694694	456.9386609187776	-201.7475744907318	1023.029468974941	379.1089031678483	-261.9033428687984	901.6026415434629	399.3310568851438	-189.1506752283086	821.7558313448137	314.7633228993406	-263.3344194874381	718.9706886337349	308.9674981642473	-226.4375281705802	702.3860963175351	188.3315230320645	-272.0188326419884	665.7786815143967	205.7086435015233	-227.5540403492594	677.6860841800982	386.57075181142	-252.421030017278	
314	141.248	1137.390475843179	1377.644529260499	-303.9038602275502	1057.916609967403	1170.633813486393	-275.7021302606104	1256.605284520043	1289.72919438861	-327.5211386206892	1151.44646735466	1360.874429908121	-456.5189971857138	1219.576779057877	1358.704652331668	-169.8846799740635	1194.723843861663	938.0335861481723	-415.9656856875933	1224.109718306999	926.8042996590051	-191.9553944281906	1041.401612707256	977.9633143538491	-293.8183603945869	1049.995031320597	977.9214345784225	-253.1241126431422	1129.395426063014	966.4301202349033	-454.1281313772499	1171.003662637439	962.1909622192227	-147.8243193274365	1122.14213883754	857.4251548008992	-471.8453573579749	1277.626698431719	758.6728262849236	-409.3858605378093	1216.57648480209	635.4569147193059	-453.2368997989809	1267.226648714269	483.0729131882841	-421.7450788728517	1328.086752855202	409.412682979871	-373.3904145878456	1241.002970877996	296.1678789104188	-418.4290436650974	1311.493797961629	201.455032363709	-349.9719584628124	1271.244613892953	98.26558697539943	-371.5374365038234	1399.98501290253	73.74885317236208	-358.5372055448806	1363.659894009065	46.11142236006152	-394.4229433714625	1195.690034766425	71.85795574232803	-323.7575086699693	1165.477509028487	849.9057941745198	-131.3973536318235	1225.532916499712	697.9506661337584	-230.0063421999904	1130.464830147941	606.593607283654	-171.1938020844625	1072.823395477064	452.6884569801873	-201.161544854202	1028.013825980768	375.7766917100161	-261.2030538286425	906.9992589437312	398.8154514213749	-188.4825985620809	825.1852821409204	316.4539301452223	-262.4612192826202	722.4147433966158	313.1595447805493	-225.454971294619	703.6961776585531	192.8849339073905	-271.0337835415358	667.3387465398221	210.87946788524	-226.6248276960509	682.4986050933732	391.5533690606707	-251.2935221428573	
315	141.252	1137.283932655879	1374.578155967341	-304.3347386523125	1057.207297449731	1167.51576385922	-276.3245872291912	1256.494985761965	1286.19304749593	-327.5117585020894	1151.960323047376	1357.759684213598	-457.2301977800777	1218.801601725579	1355.515455410685	-169.9256774483671	1194.032707233119	935.1740364113989	-416.5192628590721	1223.75499259058	923.2619919714397	-192.0084217422753	1040.8740278447	973.9930051085266	-293.4041831143803	1049.448115464168	973.8053566600263	-252.7166051696501	1128.249659443156	963.1511959984841	-454.3707584975543	1170.360406098196	958.040211829744	-147.4719082574343	1121.222238820668	854.3007709849588	-471.9025105865052	1278.077645807689	756.5415154001513	-411.1931325956177	1215.830392228824	632.8704064668634	-452.8988087819915	1266.590023648876	480.3506987863572	-421.6086494688726	1326.71727366746	405.9883873201086	-373.1071745159984	1237.213882887434	294.2115322148508	-417.6198593007637	1304.992910892404	198.5421656870881	-348.301564973848	1261.702846823936	97.23371698333136	-369.9296253992897	1390.32415957952	70.97762181883033	-357.331079683993	1353.291144982931	44.85461508171324	-393.8905813358687	1185.667862852518	71.79790979497724	-322.3520628017076	1165.803452398656	845.6656879527832	-131.7664158251642	1227.120583551867	695.2549771750951	-230.0355338436167	1133.749482772191	602.3709365821256	-170.9440500737713	1078.909323327554	448.4904808173482	-200.4824425553226	1033.203472918661	372.4904426319781	-260.4072664562944	912.6123247379205	398.280963311707	-187.7733618288288	829.0178405727517	318.0202853139988	-261.4913993103632	726.2914635255662	317.2043283261367	-224.4316697573803	705.5503183988458	197.2318578367301	-269.7800628905434	669.4186896400663	215.9049908210016	-225.4888085156425	687.735581242959	396.291927767702	-250.3188998802231	
316	141.256	1137.157792488445	1371.455751532618	-304.7225257575458	1056.464047204724	1164.356969795279	-276.9627588428261	1256.39323839174	1282.616398128712	-327.4779475690784	1152.473601662528	1354.592363489402	-457.9698120400362	1217.975671812329	1352.263786100966	-169.9082371066639	1193.343053408066	932.2380809037093	-417.0604952552038	1223.328009790482	919.6322265849935	-192.0542848058985	1040.301777513765	970.0899979724649	-293.0375554159519	1048.847808423563	969.7363487664243	-252.3536865733643	1127.14568635427	959.8489986284928	-454.6317659650092	1169.642083291888	953.8387980832972	-147.119810258655	1120.336528216384	851.1887080570884	-471.9962699789609	1278.374023089958	754.1150764138696	-412.876226788424	1215.012021415624	630.1560492575628	-452.6370908951076	1265.985408644852	477.5904688597565	-421.5025696514032	1325.23960765405	402.601136058039	-372.6821357256122	1233.517852473082	292.376241568144	-416.9364080948097	1298.320100520131	195.7970045180306	-346.6450165881242	1251.994683969499	96.43164119436737	-368.4403888045833	1380.465034931325	68.57327420957088	-356.2083049934576	1342.79826999162	43.92189658785268	-393.4323814964894	1175.500195662071	71.84162401185796	-321.1270924713621	1166.040581996583	841.4169665411777	-132.1534556161375	1228.669789340194	692.5730112626878	-230.0310731180672	1137.005341076803	598.2132614841797	-170.6207685680936	1085.091468001354	444.3719149147628	-199.7201828884353	1038.599769339302	369.2698053888966	-259.5299398414946	918.440670035933	397.7315030445969	-187.0257096038327	833.2428478430677	319.4540752212404	-260.4380102676751	730.5873102831727	321.0812016811495	-223.3747011223964	707.9501422094897	201.3488974655985	-268.266642074585	672.0271255136861	220.7548992357135	-224.1468408578756	693.3616330424877	400.7614105387576	-249.4996121487921	
